<?xml version="1.0" encoding="utf-8"?>
<!-- Generator: Adobe Illustrator 24.1.0, SVG Export Plug-In . SVG Version: 6.00 Build 0)  -->
<svg version="1.1" xmlns="http://www.w3.org/2000/svg" xmlns:xlink="http://www.w3.org/1999/xlink" x="0px" y="0px"
	 viewBox="0 0 552.8 210.6" style="enable-background:new 0 0 552.8 210.6;" xml:space="preserve">
<style type="text/css">
	.st0{fill-rule:evenodd;clip-rule:evenodd;fill:#FFFFFF;}
	.st1{fill:#FFFFFF;}
	.st2{fill-rule:evenodd;clip-rule:evenodd;fill:#D22C2C;}
	.st3{fill-rule:evenodd;clip-rule:evenodd;fill:#2E4D89;}
	.st4{fill:#D22C2C;}
</style>
<g id="Layer_2">
</g>
<g id="Layer_1">
	<g>
		<g>
			<g>
				<path class="st0" d="M512.7,53.5l-1.7-1.8c-0.6-0.7-1.3-1.2-2-1.5c-1.1-0.5-3.9-1.5-9.8-1.5l-6.6,0l-0.8,4.8h-37.7l6.7-38.1
					h49.8c11.9,0,21.8,4,29.5,12c5,5.2,8.5,11.6,10.4,19.1l1.8,7H512.7z"/>
				<path class="st1" d="M510.7,16.9c11.5,0,21,3.9,28.4,11.6c4.8,5,8.2,11.2,10.1,18.4l1.3,5.1h-37.1l-1.2-1.3
					c-0.8-0.8-1.6-1.4-2.4-1.8c-1.5-0.7-4.6-1.6-10.4-1.6l-7.8,0l-0.8,4.8H456l6.2-35.1H510.7 M510.7,13.9h-48.5h-2.5l-0.4,2.5
					L453,51.5l-0.6,3.5h3.6h34.7h2.5l0.4-2.5l0.4-2.3l5.3,0c5.6,0,8.1,0.8,9.1,1.3c0.5,0.3,1,0.6,1.5,1.2l1.2,1.3l0.9,1h1.3h37.1
					h3.9l-1-3.7l-1.3-5.1c-2-7.7-5.6-14.4-10.8-19.7C533.3,18.1,523,13.9,510.7,13.9L510.7,13.9z"/>
			</g>
			<g>
				<path class="st0" d="M514.5,49.4l-0.4-0.5c-1-1-2-1.8-3.2-2.4c-2.6-1.2-6.5-1.9-11.5-1.9l-10,0l-0.8,4.8h-29.4l5.3-29.9h46.3
					c10.7,0,19.7,3.6,26.6,10.8c4.5,4.7,7.7,10.5,9.4,17.2l0.5,1.9H514.5z"/>
				<path class="st1" d="M510.7,21c10.4,0,18.8,3.4,25.5,10.3c4.4,4.5,7.4,10,9,16.6h-30.1c-1.1-1.2-2.3-2.1-3.7-2.7
					c-2.8-1.3-6.9-2-12.2-2h0l-11.2,0l-0.8,4.8h-26.3l4.7-26.9H510.7 M510.7,18h-45.1h-2.5l-0.4,2.5l-4.7,26.9l-0.6,3.5h3.6h26.3
					h2.5l0.4-2.5l0.4-2.3l8.7,0c4.9,0,8.5,0.6,10.9,1.7c1,0.5,1.9,1.2,2.8,2.1l0.9,1h1.3h30.1h3.9l-1-3.7c-1.8-7-5.1-13-9.8-17.9
					C531.1,21.8,521.8,18,510.7,18L510.7,18z"/>
			</g>
			<g>
				<polygon class="st0" points="410.8,53.5 417.5,15.6 454.7,15.6 448,53.5 				"/>
				<path class="st1" d="M452.9,17.1L446.7,52h-34.1l6.2-34.9H452.9 M456.5,14.1h-3.6h-34.1h-2.5l-0.4,2.5l-6.2,34.9l-0.6,3.5h3.6
					h34.1h2.5l0.4-2.5l6.2-34.9L456.5,14.1L456.5,14.1z"/>
			</g>
			<g>
				<polygon class="st0" points="415.7,49.4 421,19.7 449.8,19.7 444.6,49.4 				"/>
				<path class="st1" d="M448,21.2l-4.7,26.7h-25.8l4.7-26.7H448 M451.6,18.2H448h-25.8h-2.5l-0.4,2.5l-4.7,26.7l-0.6,3.5h3.6h25.8
					h2.5l0.4-2.5l4.7-26.7L451.6,18.2L451.6,18.2z"/>
			</g>
			<g>
				<polygon class="st0" points="350.1,53.5 356.8,15.4 389.3,15.4 406.1,53.5 				"/>
				<path class="st1" d="M388.3,16.9L403.8,52h-52l6.2-35.1H388.3 M390.3,13.9h-2H358h-2.5l-0.4,2.5l-6.2,35.1l-0.6,3.5h3.6h52h4.6
					l-1.9-4.2l-15.5-35.1L390.3,13.9L390.3,13.9z"/>
			</g>
			<g>
				<polygon class="st0" points="354.9,49.4 360.2,19.5 386.6,19.5 399.8,49.4 				"/>
				<path class="st1" d="M385.7,21l11.9,26.9h-40.8l4.7-26.9H385.7 M387.6,18h-2h-24.2h-2.5l-0.4,2.5l-4.7,26.9l-0.6,3.5h3.6h40.8
					h4.6l-1.9-4.2l-11.9-26.9L387.6,18L387.6,18z"/>
			</g>
			<g>
				<polygon class="st0" points="271.6,53.5 291.7,15.4 325.9,15.4 332.2,53.5 				"/>
				<path class="st1" d="M324.6,16.9l5.8,35.1h-56.3l18.5-35.1H324.6 M327.1,13.9h-2.5h-32h-1.8l-0.8,1.6l-18.5,35.1l-2.3,4.4h5
					h56.3h3.5l-0.6-3.5l-5.8-35.1L327.1,13.9L327.1,13.9z"/>
			</g>
			<g>
				<polygon class="st0" points="278.4,49.4 294.2,19.5 322.4,19.5 327.3,49.4 				"/>
				<path class="st1" d="M321.1,21l4.5,26.9h-44.7L295.1,21H321.1 M323.7,18h-2.5h-26h-1.8l-0.8,1.6l-14.2,26.9l-2.3,4.4h5h44.7h3.5
					l-0.6-3.5l-4.5-26.9L323.7,18L323.7,18z"/>
			</g>
			<g>
				<polygon class="st0" points="169,53.5 175.7,15.4 213.4,15.4 206.6,53.5 				"/>
				<path class="st1" d="M211.6,16.9L205.4,52h-34.6l6.2-35.1H211.6 M215.1,13.9h-3.6H177h-2.5l-0.4,2.5l-6.2,35.1l-0.6,3.5h3.6
					h34.6h2.5l0.4-2.5l6.2-35.1L215.1,13.9L215.1,13.9z"/>
			</g>
			<g>
				<polygon class="st0" points="173.9,49.4 179.1,19.5 208.5,19.5 203.2,49.4 				"/>
				<path class="st1" d="M206.7,21l-4.7,26.9h-26.3l4.7-26.9H206.7 M210.3,18h-3.6h-26.3h-2.5l-0.4,2.5l-4.7,26.9l-0.6,3.5h3.6h26.3
					h2.5l0.4-2.5l4.7-26.9L210.3,18L210.3,18z"/>
			</g>
			<g>
				<path class="st0" d="M127.9,53.5l-0.9-4.4c-0.1-0.7-0.4-1.2-0.8-1.7c-0.1-0.2-0.6-0.6-1.9-1.1c-1.5-0.6-3.4-0.9-5.5-0.9
					c-4.6,0-8.1,0.8-10.4,2.5c-1,0.7-1.7,1.5-2,2.2l-1.4,3.5H67.7l1.8-7c2.4-9.3,7.5-17.1,15.4-23.3c9.4-7.4,21.4-11.1,35.6-11.1
					c7.7,0,14.7,1.2,20.9,3.6c5.8,2.2,10.4,5.2,13.9,9c5.6,6,8.4,13.8,8.4,23.2l0,5.6H127.9z"/>
				<path class="st1" d="M120.4,13.7c7.5,0,14.3,1.2,20.4,3.5c5.5,2.1,10,5,13.4,8.6c5.3,5.8,8,13.2,8,22.1l0,4.1h-33.1l-0.7-3.2
					c-0.2-0.9-0.6-1.7-1.1-2.4c-0.5-0.6-1.3-1.1-2.5-1.6c-1.7-0.7-3.7-1-6-1c-4.9,0-8.7,0.9-11.3,2.8c-1.2,0.9-2.1,1.9-2.5,2.9
					l-1,2.6H69.6l1.3-5.1c2.3-9,7.3-16.5,14.9-22.5C94.9,17.3,106.6,13.7,120.4,13.7 M120.4,10.7c-14.5,0-26.8,3.8-36.5,11.4
					c-8.1,6.4-13.5,14.5-16,24.1l-1.3,5.1L65.7,55h3.9H104h2l0.8-1.9l1-2.6c0.2-0.5,0.7-1,1.5-1.6c2.1-1.5,5.3-2.2,9.5-2.2
					c1.9,0,3.6,0.3,4.9,0.8c1,0.4,1.3,0.7,1.3,0.7c0.3,0.3,0.4,0.7,0.5,1.1l0.7,3.2l0.5,2.4h2.4h33.1h3l0-3l0-4.1
					c0-9.7-3-17.8-8.8-24.2c-3.6-3.9-8.5-7.1-14.5-9.4C135.5,11.9,128.3,10.7,120.4,10.7L120.4,10.7z"/>
			</g>
			<g>
				<path class="st0" d="M131.2,49.4l-0.3-1.2c-0.3-1.3-0.8-2.5-1.7-3.5c-0.8-0.9-1.9-1.7-3.5-2.3c-2-0.8-4.4-1.2-7-1.2
					c-5.4,0-9.7,1.1-12.8,3.3c-1.7,1.2-2.8,2.5-3.4,4l-0.4,0.9H72.9l0.5-1.9c2.1-8.4,6.8-15.5,14-21.1c8.7-6.8,19.8-10.2,33.1-10.2
					c7.2,0,13.7,1.1,19.5,3.3c5.2,2,9.3,4.6,12.4,7.9c4.9,5.3,7.3,12.1,7.4,20.4l0,1.5H131.2z"/>
				<path class="st1" d="M120.4,17.8c7,0,13.3,1.1,18.9,3.2c5,1.9,8.9,4.4,11.8,7.6c4.6,5,6.9,11.5,7,19.4h-25.7
					c-0.3-1.6-1-2.9-2-4.1c-0.9-1.1-2.3-2.1-4.1-2.8c-2.2-0.9-4.7-1.3-7.6-1.3c-5.8,0-10.3,1.2-13.6,3.5c-1.9,1.4-3.2,2.9-3.9,4.7
					H74.9c2.1-8.1,6.5-14.9,13.4-20.3C96.7,21.1,107.5,17.8,120.4,17.8 M120.4,14.8c-13.6,0-25,3.5-34,10.5
					C79,31.1,74.2,38.5,71.9,47.2L71,50.9h3.9h26.4h2L104,49c0.5-1.2,1.5-2.4,2.9-3.4c2.8-2,6.8-3,11.9-3c2.5,0,4.6,0.4,6.5,1.1
					c1.3,0.5,2.3,1.2,2.9,1.9c0.7,0.8,1.1,1.8,1.4,2.8l0.5,2.4h2.4h25.7h3l0-3c0-8.7-2.6-15.9-7.8-21.4c-3.2-3.5-7.6-6.3-12.9-8.3
					C134.5,15.9,127.8,14.8,120.4,14.8L120.4,14.8z"/>
			</g>
			<g>
				<polygon class="st0" points="22.9,53.5 29.6,15.4 67.6,15.4 60.9,53.5 				"/>
				<path class="st1" d="M65.8,16.9L59.6,52H24.7l6.2-35.1H65.8 M69.4,13.9h-3.6H30.9h-2.5l-0.4,2.5l-6.2,35.1L21.1,55h3.6h34.9h2.5
					l0.4-2.5l6.2-35.1L69.4,13.9L69.4,13.9z"/>
			</g>
			<g>
				<polygon class="st0" points="27.8,49.4 33.1,19.5 62.7,19.5 57.4,49.4 				"/>
				<path class="st1" d="M60.9,21l-4.7,26.9H29.6L34.3,21H60.9 M64.5,18h-3.6H34.3h-2.5l-0.4,2.5l-4.7,26.9L26,50.9h3.6h26.6h2.5
					l0.4-2.5l4.7-26.9L64.5,18L64.5,18z"/>
			</g>
			<g>
				<path class="st0" d="M440.6,130.6l14.1-80.1h37.7l-8.1,46.1h8.7c5.2,0,9.3-1.5,12.6-4.6c4.1-3.8,6.9-10,8.4-18.4
					c0.6-3.2,0.9-6.3,0.9-9c0-2.7-0.3-5.1-0.8-7.1l-1.9-7.1h39.5l0.4,5.1c0.2,1.8,0.2,3.7,0.2,5.7c0,4.4-0.4,9.1-1.3,13.9
					c-2.9,16.7-10.2,30.4-21.6,40.7c-5.2,4.7-10.9,8.4-17.1,10.9c-6.2,2.5-12.5,3.8-18.8,3.8H440.6z"/>
				<path class="st1" d="M550.3,51.9l0.3,3.8c0.2,1.8,0.2,3.6,0.2,5.5c0,4.3-0.4,8.9-1.3,13.6c-2.9,16.3-10,29.7-21.1,39.9
					c-5,4.6-10.7,8.2-16.7,10.7c-6,2.5-12.1,3.7-18.2,3.7h-51.1L456,51.9h34.7l-8.1,46.1H493c5.5,0,10-1.6,13.6-5
					c4.3-4,7.3-10.5,8.9-19.3c0.6-3.3,0.9-6.4,0.9-9.2c0-2.8-0.3-5.3-0.9-7.5l-1.4-5.2H550.3 M553.1,48.9h-2.8h-36.2h-3.9l1,3.8
					l1.4,5.2c0.5,1.9,0.8,4.2,0.8,6.7c0,2.6-0.3,5.5-0.8,8.7c-1.4,8.1-4.1,14-8,17.6c-3.1,2.9-6.8,4.2-11.6,4.2h-6.9l7.5-42.6
					l0.6-3.5h-3.6H456h-2.5l-0.4,2.5l-13.6,77.1l-0.6,3.5h3.6h51.1c6.5,0,13-1.3,19.4-3.9c6.4-2.6,12.3-6.4,17.6-11.2
					c11.6-10.6,19-24.6,22-41.6c0.9-4.9,1.3-9.6,1.3-14.1c0-2-0.1-3.9-0.2-5.8l-0.3-3.8L553.1,48.9L553.1,48.9z"/>
			</g>
			<g>
				<path class="st0" d="M445.5,126.5l12.7-71.9h29.4l-8.1,46.1H493c6.1,0,11.3-1.9,15.4-5.7c4.8-4.4,8-11.4,9.7-20.7
					c0.6-3.5,0.9-6.7,0.9-9.7c0-3-0.3-5.8-1-8.2l-0.5-1.9h30.4l0.1,1.4c0.1,1.7,0.2,3.5,0.2,5.3c0,4.2-0.4,8.6-1.2,13.2
					c-2.8,15.7-9.6,28.7-20.3,38.4c-4.8,4.4-10.2,7.8-15.9,10.2c-5.7,2.3-11.5,3.5-17.3,3.5H445.5z"/>
				<path class="st1" d="M546.5,56c0.1,1.7,0.2,3.4,0.2,5.2c0,4.1-0.4,8.4-1.2,12.9c-2.7,15.5-9.3,28-19.8,37.5
					c-4.7,4.3-9.9,7.6-15.5,9.9c-5.5,2.3-11.1,3.4-16.7,3.4h-46.3L459.4,56h26.3l-8.1,46.1H493c6.6,0,12-2,16.4-6.1
					c5-4.7,8.4-11.9,10.1-21.6c0.6-3.6,0.9-6.9,0.9-9.9c0-3.2-0.3-6-1-8.5H546.5 M549.3,53h-2.8h-27.1h-3.9l1,3.8
					c0.6,2.3,0.9,4.9,0.9,7.8c0,2.9-0.3,6-0.9,9.4c-1.6,9-4.7,15.7-9.2,19.9c-3.8,3.6-8.5,5.3-14.4,5.3h-11.8l7.5-42.6l0.6-3.5h-3.6
					h-26.3h-2.5l-0.4,2.5l-12.2,68.9l-0.6,3.5h3.6h46.3c6,0,11.9-1.2,17.8-3.6c5.9-2.4,11.4-5.9,16.4-10.5
					c10.9-10,17.9-23.2,20.8-39.2c0.8-4.7,1.2-9.2,1.2-13.4c0-1.9-0.1-3.7-0.2-5.4L549.3,53L549.3,53z"/>
			</g>
			<g>
				<polygon class="st0" points="400.9,130.6 381.5,85.5 373.5,130.6 336.5,130.6 350.6,50.4 404.7,50.4 409.5,61.2 411.4,50.4 
					448.5,50.4 434.4,130.6 				"/>
				<path class="st1" d="M446.8,51.9l-13.6,77.1h-31.2l-21.1-48.8l-8.6,48.8h-34l13.6-77.1h51.9l6.3,14.4l2.5-14.4H446.8
					 M450.3,48.9h-3.6h-34.1h-2.5l-0.4,2.5l-0.8,4.7l-2.4-5.3l-0.8-1.8h-2h-51.9h-2.5l-0.4,2.5l-13.6,77.1l-0.6,3.5h3.6h34h2.5
					l0.4-2.5l6.9-38.9l17.1,39.6l0.8,1.8h2h31.2h2.5l0.4-2.5l13.6-77.1L450.3,48.9L450.3,48.9z"/>
			</g>
			<g>
				<polygon class="st0" points="403.6,126.5 379.8,71.3 370.1,126.5 341.4,126.5 354.1,54.5 402.1,54.5 411.2,75.2 414.8,54.5 
					443.7,54.5 431,126.5 				"/>
				<path class="st1" d="M441.9,56L429.7,125h-25.1l-25.4-58.9L368.8,125h-25.6L355.3,56h45.8l10.7,24.3l4.3-24.3H441.9 M445.5,53
					h-3.6h-25.8h-2.5l-0.4,2.5l-2.6,14.6l-6.7-15.2l-0.8-1.8h-2h-45.8h-2.5l-0.4,2.5l-12.1,68.9l-0.6,3.5h3.6h25.6h2.5l0.4-2.5
					l8.6-49l21.5,49.7l0.8,1.8h2h25.1h2.5l0.4-2.5l12.2-68.9L445.5,53L445.5,53z"/>
			</g>
			<g>
				<path class="st0" d="M306.6,130.6l-2.6-20.7h-22.7l-10.2,20.7h-40l42.2-80.1h58.4l13.3,80.1H306.6z M300,77.4l-0.5-4.3l-2.1,4.3
					H300z"/>
				<path class="st1" d="M330.4,51.9l12.8,77.1h-35.3l-2.6-20.7h-24.9l-10.2,20.7h-36.6l40.6-77.1H330.4 M294.9,78.9h6.8l-1.3-11
					L294.9,78.9 M332.9,48.9h-2.5h-56.2h-1.8l-0.8,1.6l-40.6,77.1l-2.3,4.4h5h36.6h1.9l0.8-1.7l9.4-19h20.4l2.3,18.1l0.3,2.6h2.6
					h35.3h3.5l-0.6-3.5l-12.8-77.1L332.9,48.9L332.9,48.9z"/>
			</g>
			<g>
				<path class="st0" d="M310.2,126.5l-2.6-20.7h-28.8l-10.2,20.7h-30.7l37.9-71.9h52.5l11.9,71.9H310.2z M304.6,81.5l-2.8-22.6
					l-11.1,22.6H304.6z"/>
				<path class="st1" d="M326.9,56l11.4,68.9h-26.9l-2.6-20.7h-31.1L267.6,125h-27.2L276.6,56h24.9L288.3,83h18L303,56H326.9
					 M329.5,53h-2.5h-20.6h-4.8h-24.9h-1.8l-0.8,1.6l-36.3,68.9l-2.3,4.4h5h27.2h1.9l0.8-1.7l9.4-19h26.6l2.3,18.1l0.3,2.6h2.6h26.9
					h3.5l-0.6-3.5l-11.4-68.9L329.5,53L329.5,53z M293.1,80L301,64l1.9,15.9H293.1L293.1,80z"/>
			</g>
			<g>
				<polygon class="st0" points="155.4,130.6 169.5,50.4 207.2,50.4 199.1,96.5 246.6,96.5 240.6,130.6 				"/>
				<path class="st1" d="M205.4,51.9L197.3,98h47.6l-5.5,31h-82.2l13.6-77.1H205.4 M209,48.9h-3.6h-34.6h-2.5l-0.4,2.5l-13.6,77.1
					l-0.6,3.5h3.6h82.2h2.5l0.4-2.5l5.5-31l0.6-3.5h-3.6h-44l7.5-42.6L209,48.9L209,48.9z"/>
			</g>
			<g>
				<polygon class="st0" points="160.3,126.5 173,54.5 202.3,54.5 194.2,100.6 241.7,100.6 237.2,126.5 				"/>
				<path class="st1" d="M200.5,56l-8.1,46.1h47.6l-4,22.8h-73.8L174.2,56H200.5 M204.1,53h-3.6h-26.3h-2.5l-0.4,2.5l-12.2,68.9
					l-0.6,3.5h3.6h73.8h2.5l0.4-2.5l4-22.8l0.6-3.5h-3.6h-44l7.5-42.6L204.1,53L204.1,53z"/>
			</g>
			<g>
				<path class="st0" d="M102.6,133.9c-14.1,0-25.3-3.5-33.3-10.3c-7.8-6.7-11.8-15.5-11.8-26.4c0-0.9,0-1.9,0.1-2.9l0.4-5.2h36.8
					L94.7,95c0,0.1,0,0.2,0,0.3c0,1.8,0,5.3,10.3,5.3c5.4,0,9.5-0.9,12.1-2.8c1.5-1.1,2.3-2.2,2.5-3.7c0-0.3-0.1-0.4-0.2-0.5
					c0,0-0.2-0.2-0.7-0.4c-0.2-0.1-1.1-0.5-3.6-1.1l-20.8-5.4c-8.5-2.2-15.1-6-19.5-11.2c-4.5-5.2-6.8-11.5-6.8-18.8l0.1-6l5.5-0.1
					l32.4,0l0.9,0.3c0.8,0.2,1.7,0.5,2.9,0.8l22.2,5.9c8.4,2.2,15,6.2,19.6,11.7c4.5,5.4,6.8,11.9,6.8,19.3c0,2.1-0.2,4.2-0.6,6.4
					c-2,11.2-7.7,20.4-17,27.5C130.9,130.1,118,133.9,102.6,133.9z"/>
				<path class="st1" d="M105.8,51.9l0.6,0.2c0.8,0.3,1.8,0.6,3,0.9l22.2,5.9c8.1,2.1,14.5,5.9,18.9,11.3c4.3,5.2,6.4,11.3,6.4,18.4
					c0,2-0.2,4-0.5,6.1c-1.9,10.8-7.4,19.7-16.4,26.6c-9.7,7.5-22.3,11.2-37.3,11.2c-13.7,0-24.6-3.4-32.3-10
					c-7.4-6.4-11.2-14.9-11.2-25.2c0-0.9,0-1.8,0.1-2.8l0.3-3.8h33.8l-0.1,4.2c0,0.1,0,0.3,0,0.4c0,2.2,0,6.8,11.8,6.8
					c5.8,0,10.1-1,13-3.1c1.8-1.3,2.8-2.8,3.1-4.6c0,0,0-0.1,0-0.2c0-0.5-0.1-1-0.4-1.4c-0.3-0.4-0.9-0.8-1.3-1
					c-0.4-0.2-1.4-0.6-3.9-1.2l-20.7-5.4C86.6,83,80.3,79.4,76,74.4c-4.2-4.9-6.4-10.9-6.4-17.9l0.1-4.6l4-0.1H105.8 M106.3,48.9
					h-0.5H73.7h0l0,0l-4,0.1l-2.9,0.1l0,2.9l-0.1,4.6c0,7.7,2.4,14.4,7.1,19.9c4.5,5.2,10.9,9,19.1,11.3H59.5h-2.8l-0.2,2.8
					l-0.3,3.8c-0.1,1-0.1,2-0.1,3c0,11.3,4.1,20.5,12.3,27.5c8.3,7.1,19.8,10.7,34.2,10.7c15.7,0,28.9-4,39.2-11.8
					c9.6-7.3,15.5-16.9,17.5-28.4c0.4-2.2,0.6-4.5,0.6-6.6c0-7.8-2.4-14.6-7.1-20.3c-4.8-5.8-11.7-10-20.4-12.2l-22.2-5.9
					c-1.1-0.3-2.1-0.6-2.8-0.8l-0.6-0.2L106.3,48.9L106.3,48.9z M104.9,99c-5.8,0-7.7-1.2-8.2-1.7c-0.5-0.5-0.6-1-0.6-2
					c0-0.1,0-0.2,0-0.3l0.1-4.2l0.1-2.1l18.4,4.8c2,0.5,2.9,0.8,3.2,1c-0.2,0.6-0.7,1.3-1.8,2.1C113.9,98.2,110,99,104.9,99
					L104.9,99z"/>
			</g>
			<g>
				<path class="st0" d="M102.6,129.8c-13.1,0-23.4-3.1-30.6-9.3c-6.8-5.9-10.3-13.7-10.3-23.2c0-0.8,0-1.7,0.1-2.6l0.1-1.4h28.7
					l-0.1,1.6c0,0.2,0,0.3,0,0.5c0,2.3,0,9.4,14.4,9.4c6.3,0,11.2-1.2,14.5-3.6c2.4-1.7,3.7-3.7,4.2-6.3c0-0.2,0.1-0.4,0.1-0.6
					c0-1-0.2-1.9-0.8-2.8c-0.5-0.8-1.3-1.5-2.4-2c-0.9-0.4-2.3-0.9-4.4-1.4l-20.7-5.4c-7.7-2-13.5-5.3-17.5-9.9
					c-3.8-4.4-5.8-9.8-5.8-16.2l0-2l1.5-0.1h31.7l0.2,0.1c0.8,0.3,1.9,0.6,3.1,0.9l22.2,5.9c7.6,2,13.5,5.5,17.5,10.4
					c3.9,4.7,5.8,10.3,5.8,16.7c0,1.8-0.2,3.7-0.5,5.7c-1.8,10.1-7,18.5-15.4,25C129.1,126.2,117.1,129.8,102.6,129.8z"/>
				<path class="st1" d="M105.2,56c0.9,0.3,1.9,0.6,3.2,0.9l22.2,5.9c7.3,1.9,12.9,5.2,16.8,9.9c3.7,4.4,5.5,9.7,5.5,15.8
					c0,1.8-0.2,3.6-0.5,5.4c-1.7,9.8-6.7,17.8-14.8,24c-9.1,6.9-20.7,10.4-34.9,10.4c-12.8,0-22.6-3-29.6-9
					c-6.5-5.6-9.8-13-9.8-22.1c0-0.8,0-1.6,0.1-2.5h25.8c0,0.2,0,0.3,0,0.5c0,7.2,5.3,10.9,15.9,10.9c6.7,0,11.8-1.3,15.4-3.8
					c2.7-1.9,4.3-4.3,4.8-7.3c0-0.3,0.1-0.6,0.1-0.9c0-1.3-0.3-2.5-1-3.6c-0.7-1.1-1.7-1.9-3.1-2.6c-1-0.4-2.5-0.9-4.6-1.5l0,0
					l-20.7-5.4c-7.4-1.9-13-5.1-16.7-9.4c-3.6-4.1-5.4-9.2-5.4-15.2c0-0.2,0-0.4,0-0.5H105.2 M105.7,53h-0.5H73.7h-3l0,3l0,0.1
					c0,0.2,0,0.3,0,0.5c0,6.7,2.1,12.4,6.1,17.1C81,78.5,87.1,82,95.1,84l20.7,5.4l0,0l0,0c2.4,0.6,3.5,1,4.1,1.3
					c0.9,0.4,1.5,0.9,1.8,1.4c0.4,0.6,0.5,1.2,0.5,2c0,0.1,0,0.3,0,0.4c-0.4,2.1-1.5,3.9-3.6,5.3c-3.1,2.2-7.7,3.3-13.7,3.3
					c-12.9,0-12.9-5.5-12.9-7.9c0-0.1,0-0.3,0-0.4l0.1-3.1h-3.1H63.3h-2.8l-0.2,2.8c-0.1,0.9-0.1,1.8-0.1,2.7
					c0,10,3.6,18.2,10.8,24.4c7.5,6.4,18.1,9.7,31.6,9.7c14.8,0,27.1-3.7,36.7-11c8.7-6.7,14.1-15.4,16-25.9c0.4-2,0.5-4,0.5-5.9
					c0-6.8-2.1-12.7-6.2-17.7c-4.3-5.2-10.4-8.8-18.3-10.9l-22.2-5.9c-1.2-0.3-2.2-0.6-3-0.9L105.7,53L105.7,53z"/>
			</g>
			<g>
				<polygon class="st0" points="9.3,130.6 23.5,50.4 61.4,50.4 47.3,130.6 				"/>
				<path class="st1" d="M59.6,51.9L46,129.1H11.1l13.6-77.1H59.6 M63.2,48.9h-3.6H24.7h-2.5l-0.4,2.5L8.2,128.6l-0.6,3.5h3.6H46
					h2.5l0.4-2.5l13.6-77.1L63.2,48.9L63.2,48.9z"/>
			</g>
			<g>
				<polygon class="st0" points="14.2,126.5 26.9,54.5 56.5,54.5 43.8,126.5 				"/>
				<path class="st1" d="M54.7,56L42.6,125H16L28.2,56H54.7 M58.3,53h-3.6H28.2h-2.5l-0.4,2.5l-12.2,68.9l-0.6,3.5H16h26.6h2.5
					l0.4-2.5l12.2-68.9L58.3,53L58.3,53z"/>
			</g>
		</g>
		<g>
			<path class="st2" d="M460.9,47.9l4.7-26.9h45.1c10.4,0,18.8,3.4,25.5,10.3c4.4,4.5,7.4,10,9,16.6h-30.1c-1.1-1.2-2.3-2.1-3.7-2.7
				c-2.8-1.3-6.9-2-12.2-2h0l-11.2,0l-0.8,4.8H460.9L460.9,47.9z"/>
			<polygon class="st2" points="417.5,47.9 422.2,21.2 448,21.2 443.3,47.9 417.5,47.9 			"/>
			<polygon class="st2" points="356.7,47.9 361.5,21 385.7,21 397.5,47.9 356.7,47.9 			"/>
			<polygon class="st2" points="280.9,47.9 295.1,21 321.1,21 325.6,47.9 280.9,47.9 			"/>
			<polygon class="st2" points="175.7,47.9 180.4,21 206.7,21 201.9,47.9 175.7,47.9 			"/>
			<path class="st2" d="M74.9,47.9c2.1-8.1,6.5-14.9,13.4-20.3c8.4-6.6,19.2-9.9,32.1-9.9c7,0,13.3,1.1,18.9,3.2
				c5,1.9,8.9,4.4,11.8,7.6c4.6,5,6.9,11.5,7,19.4h-25.7c-0.3-1.6-1-2.9-2-4.1c-0.9-1.1-2.3-2.1-4.1-2.8c-2.2-0.9-4.7-1.3-7.6-1.3
				c-5.8,0-10.3,1.2-13.6,3.5c-1.9,1.4-3.2,2.9-3.9,4.7H74.9L74.9,47.9z"/>
			<polygon class="st2" points="29.6,47.9 34.3,21 60.9,21 56.2,47.9 			"/>
			<path class="st3" d="M459.4,56L447.3,125h46.3c5.6,0,11.1-1.1,16.7-3.4c5.6-2.3,10.8-5.6,15.5-9.9c10.5-9.5,17.1-22.1,19.8-37.5
				c0.8-4.5,1.2-8.8,1.2-12.9c0-1.8-0.1-3.5-0.2-5.2h-27.1c0.7,2.5,1,5.4,1,8.5c0,3-0.3,6.4-0.9,9.9c-1.7,9.7-5.1,16.9-10.1,21.6
				c-4.4,4.1-9.8,6.1-16.4,6.1h-15.4l8.1-46.1H459.4L459.4,56z"/>
			<polygon class="st3" points="355.3,56 343.2,125 368.8,125 379.2,66.1 404.6,125 429.7,125 441.9,56 416.1,56 411.8,80.3 
				401.1,56 355.3,56 			"/>
			<polygon class="st3" points="276.6,56 240.3,125 267.6,125 277.8,104.3 308.9,104.3 311.5,125 338.3,125 326.9,56 303,56 
				306.3,83 288.3,83 301.6,56 276.6,56 			"/>
			<polygon class="st3" points="174.2,56 162.1,125 235.9,125 239.9,102.1 192.4,102.1 200.5,56 174.2,56 			"/>
			<path class="st3" d="M63.3,94.8c-0.1,0.8-0.1,1.7-0.1,2.5c0,9.1,3.3,16.5,9.8,22.1c7,6,16.9,9,29.6,9c14.2,0,25.8-3.5,34.9-10.4
				c8.2-6.2,13.1-14.3,14.8-24c0.3-1.8,0.5-3.6,0.5-5.4c0-6.1-1.8-11.3-5.5-15.8c-3.9-4.7-9.5-8-16.8-9.9L108.4,57
				c-1.2-0.3-2.3-0.6-3.2-0.9H73.7c0,0.2,0,0.4,0,0.5c0,6,1.8,11,5.4,15.2c3.7,4.3,9.3,7.5,16.7,9.4l20.7,5.4l0,0
				c2.1,0.5,3.7,1,4.6,1.5c1.4,0.7,2.4,1.5,3.1,2.6c0.7,1.1,1,2.3,1,3.6c0,0.3,0,0.6-0.1,0.9c-0.5,2.9-2.1,5.3-4.8,7.3
				c-3.6,2.6-8.7,3.8-15.4,3.8c-10.6,0-15.9-3.6-15.9-10.9c0-0.2,0-0.3,0-0.5H63.3L63.3,94.8z"/>
			<polygon class="st3" points="28.2,56 16,125 42.6,125 54.7,56 			"/>
		</g>
		<g>
			<rect y="141.6" class="st4" width="552.8" height="69"/>
			<polygon class="st0" points="6.7,205.4 526,205.4 527.5,199.3 8.2,199.3 			"/>
			<polygon class="st0" points="14.2,152.9 532.8,152.9 534.3,146.8 15.8,146.8 			"/>
			<path class="st1" d="M8.5,191.9h6.1l2.3-14.4h11.7l-2.3,14.4h6.1l5.1-31.8h-6.1l-1.9,12H17.8l1.9-12h-6.1L8.5,191.9L8.5,191.9z
				 M67.7,176.2c0.8-4.8-0.1-9.6-2.4-12.7c-2-2.8-5.5-4-9.2-4c-3.8,0-7.6,1.2-10.5,4c-3.3,3.1-5.6,7.9-6.4,12.7
				c-0.8,4.8,0.1,9.6,2.4,12.7c2,2.8,5.5,4,9.2,4c3.8,0,7.6-1.2,10.5-4C64.5,185.8,66.9,181,67.7,176.2L67.7,176.2z M51.7,187.2
				c-1.9,0-3.8-0.6-5.1-2.1c-1.6-1.9-2.1-5.4-1.6-8.8c0.6-3.5,2.1-6.9,4.4-8.8c1.8-1.5,3.8-2.1,5.8-2.1c1.9,0,3.8,0.6,5.1,2.1
				c1.6,1.9,2.1,5.4,1.6,8.8c-0.6,3.5-2.1,6.9-4.4,8.8C55.7,186.5,53.7,187.2,51.7,187.2L51.7,187.2z M86.8,191.9l9.4-25.8
				l-4.1,25.8h6.1l5.1-31.8h-8.9l-9.4,24.5L83.3,160h-8.9l-5.1,31.8h6.1l4.1-25.8l1.2,25.8H86.8L86.8,191.9z M108.8,160l-5.1,31.8
				h22.1l0.9-5.5h-16l1.3-8.2h14.2l0.9-5.5h-14.2l1.2-7.2h15.4l0.9-5.5H108.8L108.8,160z M162.6,181c-0.5,1.4-1.1,4.6-5.5,5.9
				c-0.9,0.3-1.8,0.4-2.6,0.3c-0.9,0-1.6-0.2-2.3-0.5c-1.4-0.7-2.5-2.1-3.1-4.5c-0.5-2-0.3-4.4,0.1-6.7c0.5-2.3,1.2-4.4,1.8-5.5
				c1.4-2.7,3.9-4.8,6.7-5.1c6-0.5,6.7,4,6.5,5.8h5.8c0.2-1.6,0.7-5.7-3.1-8.8c-2.5-2.2-5.5-2.5-7.6-2.5c-7.7,0-12,4.7-14.6,10.6
				c-0.8,1.8-1.3,4-1.7,6.1c-0.3,2.1-0.4,4.1-0.3,5.6c0.5,6.7,4.4,11.3,11,11.1c3.7-0.1,7.2-1.6,9.2-3.1c2.5-1.9,4.8-5.5,5.4-8.8
				H162.6L162.6,181z M176.5,160l-5.1,31.8h22.1l0.9-5.5h-16l1.3-8.2h14.2l0.9-5.5h-14.2l1.2-7.2h15.4l0.9-5.5H176.5L176.5,160z
				 M203.1,160l-5.1,31.8h6.1l3.5-22.2l8.4,22.2h6l5.1-31.8h-6.1l-3.5,21.9l-8.5-21.9H203.1L203.1,160z M230.2,160l-0.9,5.5h9
				l-4.2,26.4h6.1l4.2-26.4h8.7l0.9-5.5H230.2L230.2,160z M257.7,160h21.4l-0.9,5.5h-15.4l-1.2,7.2h14.2l-0.9,5.5h-14.2l-1.3,8.2h16
				l-0.9,5.5h-22.1L257.7,160L257.7,160z M279.8,191.9h6.1l2-12.6h7.1c2.1,0,3.4,1,3.1,3.2c-0.5,2.3-0.9,4.8-1,6.4c-0.1,1,0,2,0.3,3
				h6.5l0.2-1.2c-0.6-0.4-1-0.8-0.7-2.6c0.2-1.6,0.8-5.8,0.9-7.1c0.1-2.9-1.7-3.7-2.6-4.4c2.2-1.3,3.7-2.3,4.8-5
				c1.2-2.8,0.9-5,0.7-6.4c-0.3-3.5-3.1-4.9-6-5.1h-16.4L279.8,191.9L279.8,191.9z M290.1,165.5h8.2c2.7,0,3.5,1.3,3.1,3.6
				c-0.1,3.1-3,4.8-4.4,4.8h-8.3L290.1,165.5L290.1,165.5z M341,175.5c-0.3,1.8-1.1,4.1-2.2,5.1l-3.4-5.9c3.1-2.1,5.4-4.3,6-7.8
				c0.8-5-2.7-6.9-5.9-6.9c-4,0-8.4,2.4-9.2,7.6c-0.4,2.8,1,4.8,2.2,6.6c-4.8,2.8-7,3.9-7.8,9.2c-1,6.5,3.3,9.4,8.3,9.3
				c4.1-0.2,6-1.8,8.2-3.5l1.6,2.7h6.5l-4.1-7c2.3-2.4,4-6.1,4.5-9.3H341L341,175.5z M333.3,171.3c-1.6-2.4-1.7-3.7-1.6-4
				c0.4-2.3,2-2.3,2.8-2.3c1.6,0,2.3,0.5,2,2.1C336.1,169.3,335.6,170,333.3,171.3L333.3,171.3z M334.8,185.2
				c-0.8,0.6-2.9,2.5-5.4,2.5c-2.4,0-3.8-3-3.5-4.8c0.4-2.4,1.2-3.2,4.6-5L334.8,185.2L334.8,185.2z M366.1,160l-5.1,31.8h20.3
				l0.9-5.5h-14.2l4.2-26.4H366.1L366.1,160z M408.1,160l-3.5,22.1c-0.3,2-1.7,5.1-6.5,5.1c-5,0-5-3.1-4.8-5.1l3.5-22.1h-6.1
				l-3.5,22c-0.5,3.1,0.1,6.9,4.6,9.8c1.5,0.7,3.5,1.1,5.6,1.1c2.1,0,4.3-0.4,6.3-1.3c5.3-2.6,6.6-6.8,7.1-9.6l3.5-22H408.1
				L408.1,160z M432,191.9l9.4-25.8l-4.1,25.8h6.1l5.1-31.8h-8.9l-9.4,24.5l-1.6-24.5h-8.9l-5.1,31.8h6.1l4.1-25.8l1.2,25.8H432
				L432,191.9z M449,191.9h13.4c1.9,0,5.2-0.3,7.5-2.2c3-2.4,3.9-5.1,4.2-6.7c0.6-3.8-0.7-6.6-2.3-8c2.5-1.9,3.5-4.6,3.8-6.6
				c0.2-1.3,0.8-8.3-9.4-8.3h-12.2L449,191.9L449,191.9z M459.3,165.5h7.2c2.1,0,3.6,0.9,3.2,3.6c-0.4,2.5-2.1,3.6-4.7,3.6h-6.9
				L459.3,165.5L459.3,165.5z M457.3,178.2h8.3c1.1,0,3.4,0.2,2.9,3.8c-0.7,4.4-3.5,4.5-5.3,4.5H456L457.3,178.2L457.3,178.2z
				 M483.3,160l-5.1,31.8h22.1l0.9-5.5h-16l1.3-8.2h14.2l0.9-5.5h-14.2l1.2-7.2h15.4l0.9-5.5H483.3L483.3,160z M505.3,191.9h6.1
				l2-12.6h7.1c2.1,0,3.4,1,3.1,3.2c-0.5,2.3-0.9,4.8-1,6.4c-0.1,1,0,2,0.3,3h6.5l0.2-1.2c-0.6-0.4-1-0.8-0.7-2.6
				c0.2-1.6,0.8-5.8,0.9-7.1c0.1-2.9-1.7-3.7-2.6-4.4c2.2-1.3,3.7-2.3,4.8-5c1.2-2.8,0.9-5,0.7-6.4c-0.3-3.5-3.1-4.9-6-5.1h-16.4
				L505.3,191.9L505.3,191.9z M515.6,165.5h8.2c2.7,0,3.5,1.3,3.1,3.6c-0.1,3.1-3,4.8-4.4,4.8h-8.3L515.6,165.5z"/>
		</g>
	</g>
</g>
</svg>
